<?xml version="1.0" encoding="iso-8859-1"?>
<!-- Generator: Adobe Illustrator 19.0.0, SVG Export Plug-In . SVG Version: 6.00 Build 0)  -->
<svg xmlns="http://www.w3.org/2000/svg" xmlns:xlink="http://www.w3.org/1999/xlink" version="1.1" id="Layer_1" x="0px" y="0px" viewBox="0 0 499.9 499.9" style="enable-background:new 0 0 499.9 499.9;" xml:space="preserve" width="512" height="512">
<g>
	<path d="M137.37,318.62c-23.828,0-43.02,19.41-43.02,43.03c0,22.859,17.917,41.61,40.45,42.94c24.798,1.467,45.6-18.299,45.6-42.94   C180.4,337.869,161.045,318.62,137.37,318.62z M150.4,361.65c0,7.154-5.814,13.02-13.03,13.02c-7.179,0-13.02-5.844-13.02-13.02   c0-7.139,5.801-13.03,13.02-13.03C144.633,348.62,150.4,354.542,150.4,361.65z"/>
	<path d="M362.52,318.62c-23.691,0-43.02,19.272-43.02,43.03c0,23.762,19.34,43.02,43.02,43.02c23.722,0,43.03-19.297,43.03-43.02   C405.55,337.94,386.265,318.62,362.52,318.62z M375.55,361.65c0,7.201-5.87,13.02-13.03,13.02c-7.179,0-13.02-5.844-13.02-13.02   c0-7.148,5.806-13.03,13.02-13.03C369.732,348.62,375.55,354.492,375.55,361.65z"/>
	<path d="M211.59,334c-8.28,0-15,6.72-15,15v20.71c0,8.28,6.72,15,15,15c8.28,0,15-6.72,15-15V349   C226.59,340.72,219.87,334,211.59,334z"/>
	<path d="M249.95,334c-8.28,0-15,6.72-15,15v20.71c0,8.28,6.72,15,15,15s15-6.72,15-15V349C264.95,340.72,258.23,334,249.95,334z"/>
	<path d="M288.31,334c-8.28,0-15,6.72-15,15v20.71c0,8.28,6.72,15,15,15c8.28,0,15-6.72,15-15V349   C303.31,340.72,296.59,334,288.31,334z"/>
	<path d="M390.05,0c-58.93,0-106.87,47.94-106.87,106.87c0,14.85,2.98,29.17,8.62,42.29h-83.7c5.64-13.12,8.62-27.44,8.62-42.29   C216.72,47.94,168.78,0,109.85,0C50.92,0,2.98,47.94,2.98,106.87c0,54.989,40.83,98.628,91.71,105.81v66.57   c-26.59,9.25-45.72,34.56-45.72,64.26v62.07c0,16.92,10,31.55,24.4,38.28v28.16c0,15.37,12.51,27.88,27.89,27.88h35.66   c15.38,0,27.88-12.51,27.88-27.88v-24.21h170.3v24.21c0,15.37,12.5,27.88,27.88,27.88h35.66c15.38,0,27.89-12.51,27.89-27.88   v-28.16c14.4-6.73,24.4-21.36,24.4-38.28v-62.07c0-29.7-19.13-55.01-45.72-64.26v-66.57c50.818-7.174,91.71-50.755,91.71-105.81   C496.92,47.94,448.98,0,390.05,0z M396.53,469.9H365.1v-22.09h31.43V469.9z M420.93,405.58c0,6.782-5.528,12.23-12.22,12.23   c-8.045,0-311.904,0-317.52,0c-6.69,0-12.22-5.446-12.22-12.23c0-7.171,0-54.595,0-62.07c0-20.949,17.03-38.03,38.03-38.03h265.9   c21.016,0,38.03,17.097,38.03,38.03C420.93,350.988,420.93,398.409,420.93,405.58z M134.8,469.9h-31.43v-22.09h31.43V469.9z    M32.98,106.87C32.98,64.49,67.46,30,109.85,30c42.38,0,76.87,34.49,76.87,76.87c0,12.23-2.81,23.96-8.08,34.46   c-3.4-17.66-13.46-32.98-27.46-43.23c8.745-27.874-12.239-56.23-41.33-56.23c-29.146,0-50.068,28.409-41.34,56.23   c-13.99,10.25-24.05,25.56-27.46,43.21C35.79,130.81,32.98,119.09,32.98,106.87z M430.13,172.48   c-25.775,15.599-56.016,14.608-80.15,0c0-19.696-0.096-19.822,0.37-23.32c1.55-11.26,7.8-21.05,16.7-27.31   c13.807,8.693,31.737,8.987,46.01,0c10.32,7.26,17.07,19.26,17.07,32.8V172.48z M376.75,85.18c0-7.34,5.97-13.31,13.3-13.31   c7.34,0,13.31,5.97,13.31,13.31c0,0.22-0.01,0.44-0.02,0.66c-0.34,7.03-6.17,12.64-13.29,12.64c-7.11,0-12.94-5.61-13.28-12.64   C376.76,85.62,376.75,85.4,376.75,85.18z M375.21,212.73v62.75H124.69v-62.75c25.309-3.492,47.644-15.924,63.9-33.57H311.3   C327.474,196.727,349.788,209.223,375.21,212.73z M69.77,172.48v-17.83c0-13.54,6.75-25.54,17.07-32.8   c13.751,8.658,31.679,9.023,46.01,0c10.402,7.317,17.07,19.346,17.07,32.8c0,9.848,0,7.714,0,17.83   C127.07,186.311,96.471,188.64,69.77,172.48z M96.54,85.18c0-7.34,5.97-13.31,13.31-13.31c7.33,0,13.3,5.97,13.3,13.31   c0,0.22-0.01,0.44-0.02,0.66c-0.34,7.03-6.17,12.64-13.28,12.64c-7.12,0-12.95-5.61-13.29-12.64   C96.55,85.62,96.54,85.4,96.54,85.18z M431.39,98.1c1.28-4.08,1.97-8.42,1.97-12.92c0-23.88-19.43-43.31-43.31-43.31   s-43.3,19.43-43.3,43.31c0,4.5,0.69,8.84,1.97,12.92c-14,10.25-24.06,25.57-27.46,43.23c-5.27-10.5-8.08-22.23-8.08-34.46   c0-42.38,34.49-76.87,76.87-76.87c42.39,0,76.87,34.49,76.87,76.87c0,12.22-2.81,23.94-8.07,34.44   C455.44,123.66,445.38,108.35,431.39,98.1z"/>
</g>















</svg>
