<?xml version="1.0" encoding="iso-8859-1"?>
<!-- Generator: Adobe Illustrator 19.0.0, SVG Export Plug-In . SVG Version: 6.00 Build 0)  -->
<svg xmlns="http://www.w3.org/2000/svg" xmlns:xlink="http://www.w3.org/1999/xlink" version="1.1" id="Layer_1" x="0px" y="0px" viewBox="0 0 490.88 490.88" style="enable-background:new 0 0 490.88 490.88;" xml:space="preserve" width="512" height="512">
<g>
	<path d="M401.74,180.4c6.01,7.549,17.482,7.534,23.48,0c18.406-23.167,58.82-79.074,58.82-109.84C484.04,31.65,452.38,0,413.48,0   c-38.91,0-70.56,31.65-70.56,70.56C342.92,101.216,383.22,157.092,401.74,180.4z M413.48,30c22.36,0,40.56,18.2,40.56,40.56   c0,14.52-21.01,48.83-40.56,75.7c-19.55-26.87-40.56-61.18-40.56-75.7C372.92,48.2,391.12,30,413.48,30z"/>
	<path d="M93.08,396.23c8.28,0,15-6.72,15-15v-42.39c24.21-6.6,42.06-28.78,42.06-55.05c0-31.46-25.6-57.06-57.06-57.06   c-31.46,0-57.06,25.6-57.06,57.06c0,26.27,17.85,48.45,42.06,55.05v42.39C78.08,389.51,84.8,396.23,93.08,396.23z M66.02,283.79   c0-14.92,12.14-27.06,27.06-27.06c14.92,0,27.06,12.14,27.06,27.06c0,15.003-12.243,27.06-27.06,27.06   C78.259,310.85,66.02,298.789,66.02,283.79z"/>
	<path d="M428.479,72.48v-7.5c0-8.284-6.716-15-15-15s-15,6.716-15,15v7.5c0,8.284,6.716,15,15,15S428.479,80.764,428.479,72.48z"/>
	<path d="M472.77,204.64H332.94v-97.81c0-23.48-19.11-42.59-42.6-42.59H102.6V15c0-8.28-6.71-15-15-15H32.41c-8.28,0-15,6.72-15,15   v91.83c0,23.49,19.11,42.6,42.6,42.6h187.74v63.81c-32.69,15.08-53.98,47.76-53.98,84.44c0,51.3,41.74,93.03,93.04,93.03h66.1   c3.93,0,7.12,3.2,7.12,7.13c0,3.93-3.19,7.13-7.12,7.13H18.11c-8.29,0-15,6.71-15,15v55.91c0,8.28,6.71,15,15,15h334.8   c51.3,0,93.03-41.74,93.03-93.04c0-51.3-41.73-93.04-93.03-93.04h-66.1c-3.93,0-7.13-3.19-7.13-7.12c0-3.93,3.2-7.13,7.13-7.13   h185.96c8.29,0,15-6.72,15-15v-55.91C487.77,211.35,481.06,204.64,472.77,204.64z M457.77,260.55H286.81   c-20.47,0-37.13,16.65-37.13,37.13c0,20.47,16.66,37.12,37.13,37.12h66.1c34.76,0,63.03,28.28,63.03,63.04   c0,34.76-28.27,63.04-63.03,63.04H33.11v-25.91h319.8c20.47,0,37.12-16.66,37.12-37.13c0-20.47-16.65-37.13-37.12-37.13h-66.1   c-34.76,0-63.04-28.27-63.04-63.03c0-27.39,17.53-51.49,43.61-59.96c6.18-2.01,10.37-7.771,10.37-14.271v-89.02   c0-8.28-6.72-15-15-15H60.01c-6.95,0-12.6-5.65-12.6-12.6V30H72.6v49.24c0,8.28,6.72,15,15,15h202.74c6.95,0,12.6,5.65,12.6,12.59   v112.81c0,8.28,6.72,15,15,15h139.83V260.55z"/>
</g>















</svg>
